PathFileType	4	(X/Y/Z)	F:\MotionCapture\20160217\3\Generated_files\EMG_Fprce_test06-Dynamic.trc
DataRate	CameraRate	NumFrames	NumMarkers	Units	OrigDataRate	OrigDataStartFrame	OrigNumFrames
120.00	120.00	       4	39	mm	120.00	83	       657
Frame#	Time	Top.Head			Front.Head			Rear.Head			R.Shoulder			R.Offset			R.Elbow			R.Wrist			L.Shoulder			L.Elbow			L.Wrist			R.ASIS			L.ASIS			V.Sacral			R.Thigh			R.Knee			R.Shank			R.Ankle			R.Heel			R.Toe			L.Thigh			L.Knee			L.Shank			L.Ankle			L.Heel			L.Toe			R1			R2			R3			R4			R5			R6			R7			L1			L2			L3			L4			L5			L6			L7			V_Mid_ASIS			V_Pelvis_Origin			V_R.Hip_JC			V_L.Hip_JC			V_R.Knee_JC			V_L.Knee_JC			V_R.Ankle_JC			V_L.Ankle_JC			V_Mid_Hip			V_Mid_Shoulder			V_R.Hand			V_L.Hand			V_R.Toe_Offset_Static			V_L.Toe_Offset_Static			V_R.Toe_Offset			V_L.Toe_Offset			
		X1	Y1	Z1	X2	Y2	Z2	X3	Y3	Z3	X4	Y4	Z4	X5	Y5	Z5	X6	Y6	Z6	X7	Y7	Z7	X8	Y8	Z8	X9	Y9	Z9	X10	Y10	Z10	X11	Y11	Z11	X12	Y12	Z12	X13	Y13	Z13	X14	Y14	Z14	X15	Y15	Z15	X16	Y16	Z16	X17	Y17	Z17	X18	Y18	Z18	X19	Y19	Z19	X20	Y20	Z20	X21	Y21	Z21	X22	Y22	Z22	X23	Y23	Z23	X24	Y24	Z24	X25	Y25	Z25	X26	Y26	Z26	X27	Y27	Z27	X28	Y28	Z28	X29	Y29	Z29	X30	Y30	Z30	X31	Y31	Z31	X32	Y32	Z32	X33	Y33	Z33	X34	Y34	Z34	X35	Y35	Z35	X36	Y36	Z36	X37	Y37	Z37	X38	Y38	Z38	X39	Y39	Z39	

83	0.683	2541.98633	75.02107	1731.73865	2421.51538	74.73522	1660.43823	2642.30542	64.00106	1652.27905	2563.19556	262.31879	1418.97229	2694.87427	-3.84906	1278.97424	2584.59448	363.04651	1094.11975	2428.91064	354.51196	882.71588	2541.31348	-147.02542	1426.53723	2574.72803	-238.51947	1102.22913	2511.98779	-228.53084	852.02545	2514.32617	208.39917	941.38055	2497.63940	-80.24432	937.49396	2726.77832	50.84852	954.83704	2473.19482	202.74161	567.15277	2545.20117	248.19872	464.63089	2608.24951	196.14610	231.44681	2704.06372	272.33966	90.25002	2774.46143	206.48581	64.11827	2570.73315	272.87482	50.65944	2477.33276	-18.40524	613.81122	2570.92871	-70.57573	456.17102	2590.74780	11.70035	318.57794	2705.33740	-47.45001	64.82849	2774.32813	7.26628	49.75394	2569.74390	-43.08858	51.97355	2523.56787	259.51749	47.55832	2561.32568	237.88986	55.93711	2651.60400	192.59789	67.19290	2725.19873	183.53206	57.61722	2749.69214	254.34868	67.10713	2676.09937	290.30212	49.61768	2612.18799	309.87558	45.44045	2527.24414	-17.42704	50.56337	2558.55273	-5.01157	53.66759	2651.25391	39.95385	56.25198	2735.51294	39.13049	49.91249	2748.08936	-32.65306	49.08830	2668.90674	-56.65001	35.98959	2609.94922	-72.96380	47.54042																																																	2721.88745	105.75332	442.86136	
84	0.692	2537.85229	73.95625	1731.39673	2417.55396	73.55460	1660.03540	2638.46045	62.44395	1652.06030	2559.93311	261.11505	1418.27283	2691.40479	-5.62373	1278.91614	2583.31934	361.63345	1093.48865	2429.05688	355.52075	881.93494	2536.68823	-148.71025	1426.20459	2569.97485	-240.10226	1101.72974	2506.66968	-229.86017	851.15271	2510.86035	207.42827	940.25220	2493.66504	-80.90407	936.69543	2724.76123	48.76010	954.83386	2464.71558	202.26971	567.86182	2536.20703	247.58168	464.73239	2603.00195	195.14964	232.89432	2708.55933	271.38327	95.59817	2772.50439	203.88628	68.70716	2570.35840	272.80374	50.95713	2475.71802	-19.25964	612.88306	2570.54565	-71.09492	455.97794	2590.55176	11.28068	318.57147	2705.41284	-47.53053	64.75102	2774.36279	7.15084	49.76642	2569.78345	-43.10249	51.88042	2522.87524	260.41095	47.24839	2560.41724	238.03978	56.07259	2649.27295	191.25264	69.56927	2722.29541	180.49937	60.54761	2748.35962	251.41525	70.65537	2675.18115	288.74673	51.27877	2612.27124	307.68884	46.38041	2527.27612	-17.29575	50.45800	2558.26831	-4.85299	53.47285	2651.42920	39.94006	56.29950	2735.65796	38.98162	49.84233	2748.17432	-32.85489	48.96383	2668.90967	-56.68476	35.96577	2610.73071	-73.61347	48.78906																																																	2720.52539	104.03954	442.20758	
85	0.700	2533.66187	72.99870	1730.95605	2413.35938	72.54246	1659.68481	2634.19507	61.14895	1651.65906	2556.69189	259.92419	1417.68127	2687.86816	-7.40374	1278.91577	2582.98926	360.91327	1093.66907	2429.49536	356.90741	880.81622	2532.73853	-150.11679	1425.65674	2564.66626	-241.95786	1101.37109	2500.96338	-231.65034	850.82587	2507.81250	206.37338	939.83282	2490.12646	-82.24573	936.09149	2722.42090	47.12073	954.33374	2456.32910	200.56329	569.19110	2527.17822	247.33659	465.05890	2595.89355	195.05676	234.49197	2705.52637	267.86230	98.65285	2769.90308	200.03163	73.70345	2569.90161	272.56351	51.22316	2473.85132	-20.26644	612.92731	2570.16504	-71.71036	455.71985	2589.59668	11.02020	318.71313	2705.51294	-47.64041	64.69447	2774.46753	7.04404	49.82170	2569.83862	-43.11613	51.81186	2522.10742	260.92645	47.17435	2558.88013	237.78839	56.39299	2646.72314	189.83722	72.14840	2719.37134	178.25714	64.57584	2747.76978	248.78758	77.68271	2674.55688	287.31006	54.64658	2611.97388	305.69958	47.92247	2527.36841	-17.17620	50.43454	2559.05371	-5.06346	53.62447	2652.14722	40.10106	56.48695	2735.92334	38.90960	49.94204	2748.33984	-33.05693	48.76893	2668.90356	-56.70126	35.99816	2610.05249	-73.48948	47.55639																																																	3315.93140	208.82555	-131.01273	
86	0.708	2529.18799	71.65730	1730.62744	2408.98633	72.32924	1659.05823	2629.78491	60.07045	1651.28418	2553.84717	258.71954	1417.48389	2684.21655	-9.31990	1279.15723	2581.95825	359.83374	1093.59985	2429.95483	357.84247	879.71924	2527.92603	-151.12793	1425.07996	2559.51807	-243.96832	1101.26367	2494.28125	-233.13934	850.55170	2506.27637	205.85884	939.54089	2487.15894	-83.17907	935.80872	2720.17700	45.67287	953.95435	2447.46924	199.80968	571.94757	2517.35938	246.40927	465.73468	2590.17261	193.89934	236.64931	2702.76489	265.17621	102.66125	2766.78052	196.50653	79.38796	2569.12500	272.21924	51.61321	2474.25537	-20.73288	612.23615	2569.68628	-72.35657	455.94077	2589.83447	10.37996	319.01630	2705.66699	-47.96466	64.60709	2774.58374	6.92596	49.81224	2570.02441	-42.99191	51.78589	2521.27246	261.30746	47.12668	2557.00098	237.43958	56.52296	2643.97461	187.94119	74.64270	2716.17969	174.38148	69.03895	2744.13916	244.78670	79.83206	2673.80713	284.42633	57.25567	2611.36621	303.05402	49.58464	2527.64966	-16.81330	50.60350	2559.24292	-4.96437	53.60548	2652.04932	40.35639	57.29715	2736.16650	38.74937	50.01144	2748.52490	-33.29218	48.62936	2668.65039	-55.73376	35.51728	2610.77783	-73.80758	48.62884																																																	2869.10718	77.81046	253.08336	3136.32422	164.25041	-73.44502	3247.50928	169.98016	-144.83069	
